<?xml version="1.0" encoding="UTF-8" standalone="no"?>
<svg
   viewBox="0 0 702.72986 356.98807"
   width="702.72986"
   height="356.98807"
   version="1.1"
   id="svg5"
   sodipodi:docname="popoto-logo-single-color-blue.svg"
   inkscape:version="1.1 (c68e22c387, 2021-05-23)"
   xmlns:inkscape="http://www.inkscape.org/namespaces/inkscape"
   xmlns:sodipodi="http://sodipodi.sourceforge.net/DTD/sodipodi-0.dtd"
   xmlns="http://www.w3.org/2000/svg"
   xmlns:svg="http://www.w3.org/2000/svg">
  <defs
     id="defs9" />
  <sodipodi:namedview
     id="namedview7"
     pagecolor="#ffffff"
     bordercolor="#666666"
     borderopacity="1.0"
     inkscape:pageshadow="2"
     inkscape:pageopacity="0.0"
     inkscape:pagecheckerboard="0"
     showgrid="false"
     inkscape:zoom="0.45957446"
     inkscape:cx="-178.42593"
     inkscape:cy="-77.245372"
     inkscape:window-width="1920"
     inkscape:window-height="1057"
     inkscape:window-x="-8"
     inkscape:window-y="-8"
     inkscape:window-maximized="1"
     inkscape:current-layer="svg5" />
  <style
     id="style2">
		tspan { white-space:pre }
		.shp0 { fill: #3893c5 } 
	</style>
  <path
     id="Path 0"
     fill-rule="evenodd"
     class="shp0"
     d="m 371.22928,19.743448 c 3.59313,0.0088 5.17624,0.409118 5.97669,1.529748 0.59589,0.836026 1.09395,2.623697 1.11174,3.966674 0.0178,1.592006 -1.71652,4.847169 -4.98947,9.338582 -2.766,3.788796 -6.1279,9.294112 -7.47087,12.229095 -1.35187,2.934983 -3.13954,7.737683 -3.98446,10.672666 -0.88939,3.086178 -1.39634,7.230729 -1.20067,9.836639 0.22235,2.988346 1.14731,5.745451 2.77489,8.226845 1.8855,2.863832 3.82437,4.358005 8.4492,6.465857 3.29962,1.503065 11.00173,5.007258 17.11183,7.78215 6.11899,2.774893 18.12574,8.867206 26.68167,13.536496 8.5648,4.67818 20.58045,11.6332 26.69055,15.45757 6.11899,3.83327 15.92006,10.38806 21.79002,14.56819 5.86997,4.18902 14.47036,10.67266 19.12186,14.42588 4.65151,3.74433 12.656,10.60151 17.78778,15.22634 5.13177,4.63371 13.54538,13.14516 18.67716,18.92619 5.13177,5.78103 12.0779,14.15907 15.422,18.6238 3.34411,4.46473 8.32468,11.72215 11.05511,16.12462 2.73042,4.40248 7.69321,13.70548 11.02841,20.67829 4.35801,9.09845 6.63485,12.88724 8.07565,13.43866 1.10284,0.41802 7.60427,0.99611 14.45257,1.28961 6.84829,0.28461 17.25415,1.33409 23.12411,2.32131 5.86996,0.98722 14.67491,2.85493 19.56655,4.13566 4.89164,1.28072 11.09957,3.13953 13.78552,4.11787 2.68596,0.97833 10.00563,4.24239 16.25803,7.24851 8.20906,3.9489 11.35749,5.90555 11.33971,7.02617 -0.0178,1.05838 -2.21458,2.57923 -6.91945,4.76713 -3.78879,1.76988 -11.69546,4.79381 -17.56542,6.73267 -5.86997,1.92997 -15.17298,4.28686 -20.67829,5.2385 -5.50532,0.94275 -14.10571,1.71652 -19.12186,1.70763 -6.65263,0 -9.65876,0.35576 -11.11736,1.33408 -1.24514,0.83602 -2.64148,3.43304 -3.69096,6.90166 -0.93386,3.0595 -2.30352,8.76048 -3.04171,12.67379 -0.74709,3.91331 -1.68095,10.42363 -2.09007,14.46146 -0.48916,4.90053 -0.86983,6.49968 -1.60802,6.49079 -4.31584,-3.07107 -5.45473,-5.31253 -7.67719,-8.05612 -2.55255,-3.17511 -6.74157,-10.1835 -9.31191,-15.5643 -2.56144,-5.3808 -5.33632,-12.78052 -6.15456,-16.45369 -0.82714,-3.66428 -1.72542,-11.66878 -2.49919,-28.90513 l -5.42526,-5.66541 c -2.97946,-3.12176 -9.21407,-8.86721 -13.86558,-12.77162 -4.6515,-3.90442 -14.248,-10.96617 -21.34533,-15.68882 -7.09732,-4.71376 -18.89951,-11.6332 -26.23697,-15.36864 -7.33745,-3.73543 -17.94787,-8.5915 -23.5688,-10.79718 -5.62093,-2.19679 -14.835,-5.46974 -20.45594,-7.2752 -5.62093,-1.80545 -15.83112,-4.66039 -22.67941,-6.34134 -6.84829,-1.68094 -19.45094,-4.13566 -28.01574,-5.44305 -14.53262,-2.23237 -17.55654,-2.39247 -45.80352,-2.42804 -19.67328,-0.0266 -33.50328,0.35576 -39.5778,1.11174 -5.13178,0.64035 -15.54652,2.16121 -23.12412,3.38856 -7.57758,1.23625 -15.16407,2.91721 -16.84502,3.73544 -1.67205,0.82713 -3.87773,2.60591 -4.89163,3.94889 -1.53865,2.04559 -1.68985,2.9083 -0.92497,5.33633 0.64036,2.05449 1.92998,3.39746 4.44695,4.6515 3.14843,1.56533 6.17235,1.82325 27.55326,2.36578 13.20742,0.32907 26.71724,0.64035 30.01686,0.68482 5.38081,0.0712 6.00338,0.26682 6.00338,1.85883 0,1.1651 -1.90329,3.13065 -5.55867,5.71877 -3.0595,2.16121 -10.16573,6.13678 -15.78666,8.84052 -5.62093,2.69485 -13.42977,5.69209 -17.34307,6.66152 -3.91332,0.97834 -10.31692,2.24126 -14.23023,2.81936 -3.91331,0.587 -13.11849,1.04949 -20.45594,1.04059 -7.33746,-0.009 -16.7383,-0.48027 -20.90063,-1.04059 -4.16234,-0.56031 -11.96228,-2.00112 -17.34309,-3.21069 -5.98558,-1.34298 -10.47699,-1.92997 -11.56205,-1.50307 -0.97832,0.38245 -5.78103,3.3619 -10.67266,6.60817 -4.89165,3.25515 -13.09181,8.12901 -18.23247,10.83275 -5.14067,2.70374 -12.94061,6.35913 -17.34308,8.12011 -4.40248,1.76099 -12.40698,4.20682 -17.78778,5.42528 -5.3808,1.21846 -12.38029,2.82825 -15.56431,3.57534 -3.18401,0.73819 -7.18626,2.01002 -8.89388,2.82826 -1.70763,0.80934 -8.31579,6.52811 -14.67492,12.70936 -6.359128,6.18125 -12.86056,11.90002 -14.452566,12.70937 -1.663156,0.84492 -7.587049,3.03583 -10.450313,1.0228 -1.25629,-0.88324 -1.129493,-4.4665 -1.129493,-4.4665 -0.177878,-3.42416 1.520824,-5.8682 5.113954,-13.98832 2.436925,-5.50532 5.025043,-12.8072 5.736553,-16.23135 0.720406,-3.42414 1.912187,-11.22408 2.650379,-17.34307 0.738192,-6.11011 1.956655,-16.22245 2.712636,-22.45707 0.862706,-7.11512 2.223472,-13.57208 3.646494,-17.34308 1.254037,-3.29963 3.95778,-9.19629 6.003376,-13.10959 2.05449,-3.90442 5.92333,-10.37027 8.61817,-14.37252 2.69485,-4.00225 8.14681,-11.2063 12.12237,-16.0179 3.97557,-4.81158 10.79719,-12.14905 15.1463,-16.31138 4.358,-4.16235 11.31302,-10.29913 15.44868,-13.64323 4.14455,-3.3441 12.33582,-9.27632 18.20579,-13.18074 5.86996,-3.9133 16.67604,-10.06788 24.01349,-13.68768 7.33746,-3.61982 18.73943,-8.369153 25.34758,-10.548156 6.60816,-2.179001 17.01401,-5.025046 23.12412,-6.332447 6.11899,-1.298507 13.11848,-3.006134 15.56429,-3.788796 3.32632,-1.076159 5.56758,-2.668165 8.89389,-6.332447 2.44583,-2.694848 9.24964,-9.721019 15.11961,-15.626561 7.45308,-7.488653 13.62544,-12.700471 20.45594,-17.263034 5.3808,-3.593131 13.78553,-8.466981 18.67716,-10.814968 4.89164,-2.356879 12.09569,-5.327439 16.009,-6.617053 3.91331,-1.280719 10.19484,-4.085368 15.52519,-5.311379 5.83483,-1.342043 12.34884,-2.176201 17.82689,-2.195061 z M 123.53452,59.347929 c 5.69208,0.266816 9.61429,0.880494 10.89501,1.71652 1.4497,0.942752 2.00112,2.170109 2.00112,4.420262 0,2.072276 -0.51584,3.370783 -1.55643,3.895523 -0.85381,0.4358 -7.36414,0.987221 -14.45257,1.227357 -10.01452,0.337967 -14.28358,0.880494 -19.12186,2.42803 -3.424145,1.093948 -8.62707,3.2018 -11.562052,4.678185 -2.934983,1.476385 -7.542013,4.180127 -10.227967,5.99448 -2.685954,1.823246 -7.693213,6.296872 -11.117359,9.943365 -3.619813,3.851054 -7.68432,9.391949 -9.703231,13.242989 -1.92108,3.63761 -4.366899,9.21407 -5.451954,12.39808 -1.085054,3.18401 -2.294622,7.78215 -2.685954,10.22797 -0.400225,2.44582 -1.449703,5.14957 -2.330198,6.00338 -0.889388,0.85381 -2.614803,1.55643 -3.84216,1.55643 -1.387446,0 -2.917195,-0.91607 -4.055612,-2.44582 -1.467491,-1.94777 -1.71652,-3.16623 -1.23625,-6.00337 0.329073,-1.95666 1.600899,-6.75936 2.828256,-10.67267 1.227356,-3.91331 3.6376,-9.91668 5.35412,-13.34082 1.71652,-3.42415 4.358005,-8.031186 5.869965,-10.227976 1.503068,-2.19679 4.358005,-5.772133 6.332448,-7.924453 1.965549,-2.161215 6.590372,-6.31466 10.254652,-9.222961 3.673176,-2.908301 9.071766,-6.634839 12.006749,-8.271315 2.934979,-1.636475 8.137903,-3.948886 11.56205,-5.149561 3.424147,-1.200675 8.627067,-2.605909 11.562057,-3.139542 2.93498,-0.52474 6.34134,-1.138418 7.5598,-1.351872 1.22736,-0.213452 6.22572,-0.204558 11.11737,0.01779 z m -2.00113,25.320896 c 8.83164,-0.05336 9.69434,0.08894 11.35749,1.938867 0.98722,1.102843 1.77878,2.801575 1.7521,3.779902 -0.0178,0.978328 -0.7293,2.490289 -1.57421,3.36189 -1.23625,1.28072 -2.98835,1.583112 -9.08956,1.574218 -4.15344,-0.0088 -10.15682,0.595891 -13.34083,1.351871 -3.18402,0.755981 -8.18238,2.650378 -11.108472,4.215707 -2.934983,1.55643 -7.951136,5.43416 -11.152935,8.61817 -3.2018,3.18401 -7.07953,8.18238 -8.627067,11.11736 -1.538642,2.93498 -3.459722,8.1379 -4.260172,11.56204 -0.80045,3.42416 -2.12564,6.95503 -2.943877,7.83552 -0.951646,1.0317 -2.436925,1.51196 -4.126764,1.33409 -1.769883,-0.18678 -3.086178,-1.06727 -4.002249,-2.68596 -1.182887,-2.08117 -1.209569,-3.14843 -0.195666,-8.00449 0.640361,-3.07729 2.908302,-9.19628 5.042835,-13.59876 2.134532,-4.40247 5.843283,-10.20128 8.235739,-12.89613 2.392456,-2.69485 7.124,-6.768248 10.521466,-9.053977 3.388571,-2.285729 7.968923,-4.971683 10.165713,-5.958904 2.196789,-0.987222 6.199039,-2.383563 8.893889,-3.112861 2.81047,-0.755981 8.96504,-1.351871 14.45257,-1.378553 z m 1.33408,24.885095 c 5.06062,-0.0445 5.71878,0.17788 7.36414,2.40135 0.99612,1.34298 1.80546,3.04171 1.79657,3.7799 -0.009,0.73819 -0.52474,2.08116 -1.13842,2.98835 -0.88049,1.2896 -2.55254,1.72541 -7.57759,2.00112 -3.54866,0.18677 -8.14681,1.08505 -10.22797,1.97444 -2.08118,0.89828 -5.30076,3.2018 -7.15069,5.11399 -1.85883,1.92107 -3.99336,5.29186 -4.74934,7.48865 -0.75598,2.19679 -1.938867,5.30076 -2.63259,6.89276 -0.844919,1.94776 -2.054487,3.06839 -3.699857,3.42415 -1.814353,0.40022 -2.908301,0.0444 -4.224597,-1.36077 -1.23625,-1.3074 -1.760989,-3.04171 -1.707626,-5.64761 0.03558,-2.06339 1.067267,-5.95001 2.285729,-8.64487 1.218463,-2.69484 3.593131,-6.44806 5.265182,-8.35135 1.680944,-1.90329 4.856059,-4.68708 7.052849,-6.18125 2.19679,-1.49418 6.19904,-3.42415 8.89389,-4.27796 2.69486,-0.85381 7.39083,-1.57422 10.45032,-1.6009 z"
     sodipodi:nodetypes="cccccccccccccccssscccsssccccccccccccccccscscssccccccccccsccccsscccsssccscaccccsccsscccsscccccccacccscccscccsccsccsscccssccccccccscscsccccsscsccccsccccsccccscssc"
     style="stroke-width:0.889389" />
</svg>
