<?xml version="1.0" encoding="UTF-8" standalone="no"?>
<svg
   viewBox="0 0 702.72986 356.98807"
   width="702.72986"
   height="356.98807"
   version="1.1"
   id="svg5"
   sodipodi:docname="popoto-logo-single-color-grey.svg"
   inkscape:version="1.1 (c68e22c387, 2021-05-23)"
   xmlns:inkscape="http://www.inkscape.org/namespaces/inkscape"
   xmlns:sodipodi="http://sodipodi.sourceforge.net/DTD/sodipodi-0.dtd"
   xmlns="http://www.w3.org/2000/svg"
   xmlns:svg="http://www.w3.org/2000/svg">
  <defs
     id="defs9" />
  <sodipodi:namedview
     id="namedview7"
     pagecolor="#ffffff"
     bordercolor="#666666"
     borderopacity="1.0"
     inkscape:pageshadow="2"
     inkscape:pageopacity="0.0"
     inkscape:pagecheckerboard="0"
     showgrid="false"
     inkscape:zoom="0.45957446"
     inkscape:cx="-238.26389"
     inkscape:cy="-77.245372"
     inkscape:window-width="1271"
     inkscape:window-height="1041"
     inkscape:window-x="124"
     inkscape:window-y="0"
     inkscape:window-maximized="0"
     inkscape:current-layer="svg5" />
  <style
     id="style2">
		tspan { white-space:pre }
		.shp0 { fill: #3893c5 } 
	</style>
  <path
     id="Path 0"
     fill-rule="evenodd"
     class="shp0"
     d="m 371.22928,19.74345 c 3.59313,0.0089 5.17624,0.409119 5.97669,1.529749 0.59589,0.836025 1.09395,2.623697 1.11174,3.966674 0.0178,1.592006 -1.71652,4.847168 -4.98947,9.338581 -2.766,3.788796 -6.12789,9.294112 -7.47087,12.229095 -1.35187,2.934983 -3.13954,7.737682 -3.98446,10.672665 -0.88939,3.086179 -1.39634,7.230731 -1.20068,9.83664 0.22235,2.988346 1.14732,5.745451 2.7749,8.226845 1.8855,2.863832 3.82437,4.358005 8.44919,6.465857 3.29963,1.503066 11.00174,5.007257 17.11184,7.78215 6.11899,2.774893 18.12574,8.867206 26.68166,13.536494 8.56482,4.67819 20.58046,11.63321 26.69056,15.45758 6.11899,3.83327 15.92006,10.38806 21.79002,14.56819 5.86997,4.18902 14.47036,10.67266 19.12186,14.42588 4.6515,3.74433 12.656,10.60152 17.78777,15.22634 5.13178,4.63371 13.54539,13.14516 18.67717,18.92619 5.13177,5.78103 12.0779,14.15907 15.422,18.6238 3.3441,4.46473 8.32468,11.72214 11.0551,16.12462 2.73042,4.40247 7.69321,13.70548 11.02842,20.67829 4.35801,9.09844 6.63484,12.88724 8.07565,13.43866 1.10284,0.41801 7.60427,0.99612 14.45257,1.28961 6.84829,0.28461 17.25414,1.33409 23.1241,2.32131 5.86997,0.98722 14.67492,2.85494 19.56656,4.13566 4.89164,1.28072 11.09957,3.13954 13.78552,4.11787 2.68596,0.97832 10.00563,4.24238 16.25803,7.24851 8.20906,3.94889 11.35749,5.90555 11.33971,7.02618 -0.0178,1.05837 -2.21458,2.57922 -6.91945,4.76712 -3.7888,1.76988 -11.69546,4.7938 -17.56543,6.73267 -5.86996,1.92998 -15.17297,4.28686 -20.67828,5.2385 -5.50532,0.94275 -14.10571,1.71652 -19.12186,1.70763 -6.65263,0 -9.65876,0.35575 -11.11736,1.33408 -1.24515,0.83603 -2.64149,3.43304 -3.69097,6.90166 -0.93385,3.05949 -2.30351,8.76048 -3.0417,12.67379 -0.74709,3.91331 -1.68095,10.42363 -2.09007,14.46146 -0.48916,4.90053 -0.86983,6.49968 -1.60802,6.49078 -4.31584,-3.07106 -5.45473,-5.31252 -7.6772,-8.05611 -2.55254,-3.17511 -6.74156,-10.1835 -9.3119,-15.5643 -2.56144,-5.3808 -5.33633,-12.78052 -6.15457,-16.45369 -0.82713,-3.66428 -1.72541,-11.66878 -2.49918,-28.90514 l -5.42527,-5.6654 c -2.97945,-3.12176 -9.21407,-8.86721 -13.86557,-12.77162 -4.6515,-3.90442 -14.24801,-10.96617 -21.34533,-15.68882 -7.09732,-4.71376 -18.89951,-11.63321 -26.23697,-15.36864 -7.33746,-3.73543 -17.94786,-8.59149 -23.5688,-10.79718 -5.62094,-2.19679 -14.835,-5.46974 -20.45594,-7.2752 -5.62094,-1.80546 -15.83112,-4.66039 -22.67941,-6.34134 -6.8483,-1.68094 -19.45094,-4.13566 -28.01575,-5.44306 -14.53261,-2.23236 -17.55653,-2.39245 -45.80352,-2.42803 -19.67328,-0.0267 -33.50327,0.35576 -39.5778,1.11174 -5.13177,0.64036 -15.54651,2.16121 -23.1241,3.38857 -7.5776,1.23625 -15.16408,2.91719 -16.84503,3.73543 -1.67205,0.82713 -3.87773,2.60591 -4.89164,3.94889 -1.53864,2.04559 -1.68983,2.9083 -0.92496,5.33633 0.64036,2.05449 1.92997,3.39746 4.44694,4.6515 3.14844,1.56533 6.17236,1.82325 27.55327,2.36578 13.20742,0.32907 26.71723,0.64036 30.01687,0.68483 5.3808,0.0712 6.00337,0.26681 6.00337,1.85882 0,1.1651 -1.90329,3.13065 -5.55868,5.71877 -3.0595,2.16121 -10.16571,6.13678 -15.78665,8.84052 -5.62094,2.69485 -13.42977,5.69209 -17.34308,6.66152 -3.91331,0.97833 -10.31691,2.24126 -14.23022,2.81937 -3.91331,0.58699 -13.11848,1.04947 -20.45594,1.04058 -7.33746,-0.009 -16.7383,-0.48027 -20.90064,-1.04058 -4.16233,-0.56032 -11.96227,-2.00113 -17.34308,-3.2107 -5.98558,-1.34298 -10.477,-1.92997 -11.56205,-1.50307 -0.97833,0.38244 -5.78103,3.36189 -10.67266,6.60816 -4.89164,3.25517 -13.09181,8.12902 -18.23247,10.83276 -5.14067,2.70374 -12.94061,6.35913 -17.34308,8.12012 -4.40248,1.76099 -12.40698,4.20681 -17.78778,5.42527 -5.3808,1.21846 -12.38029,2.82825 -15.56431,3.57534 -3.18401,0.73819 -7.18626,2.01002 -8.89388,2.82826 -1.70763,0.80934 -8.31579,6.52811 -14.67492,12.70936 -6.359127,6.18125 -12.860559,11.90002 -14.452565,12.70937 -1.663157,0.84492 -7.587049,3.03583 -10.450314,1.02279 -1.256289,-0.88324 -1.129492,-4.4665 -1.129492,-4.4665 -0.177878,-3.42414 1.520823,-5.86819 5.113954,-13.98831 2.436925,-5.50532 5.025043,-12.8072 5.736553,-16.23135 0.720405,-3.42414 1.912186,-11.22408 2.650379,-17.34308 0.738193,-6.1101 1.956655,-16.22245 2.712636,-22.45706 0.862707,-7.11511 2.223471,-13.57207 3.646493,-17.34308 1.254039,-3.29963 3.95778,-9.19628 6.003376,-13.10959 2.05449,-3.90442 5.92333,-10.37028 8.61817,-14.37252 2.69485,-4.00225 8.14681,-11.2063 12.12237,-16.0179 3.97557,-4.81159 10.79718,-12.14905 15.1463,-16.31139 4.358,-4.16233 11.31302,-10.29912 15.44868,-13.64322 4.14455,-3.3441 12.33582,-9.27632 18.20579,-13.18074 5.86996,-3.91331 16.67604,-10.06788 24.01349,-13.68769 7.33746,-3.61981 18.73943,-8.369151 25.34758,-10.548154 6.60816,-2.179002 17.01401,-5.025046 23.12411,-6.332447 6.119,-1.298508 13.11848,-3.006134 15.5643,-3.788796 3.32632,-1.07616 5.56758,-2.668166 8.89389,-6.332447 2.44582,-2.694848 9.24964,-9.721019 15.11961,-15.62656 7.45308,-7.488654 13.62543,-12.700472 20.45594,-17.263036 5.3808,-3.59313 13.78553,-8.466981 18.67716,-10.814967 4.89164,-2.35688 12.09569,-5.327438 16.009,-6.617052 3.91331,-1.280719 10.19483,-4.085368 15.52519,-5.311379 5.83482,-1.342043 12.34884,-2.176202 17.82689,-2.195062 z M 123.53451,59.34793 c 5.69209,0.266817 9.61429,0.880495 10.89501,1.716521 1.44971,0.942752 2.00113,2.170108 2.00113,4.420262 0,2.072276 -0.51585,3.370783 -1.55643,3.895522 -0.85381,0.435801 -7.36414,0.987222 -14.45257,1.227357 -10.01452,0.337968 -14.28358,0.880495 -19.12186,2.428031 -3.424144,1.093948 -8.627069,3.2018 -11.562051,4.678185 -2.934983,1.476385 -7.542013,4.180127 -10.227967,5.994479 -2.685954,1.823247 -7.693213,6.296872 -11.117359,9.943366 -3.619813,3.851053 -7.684319,9.391947 -9.703232,13.242997 -1.921079,3.6376 -4.366898,9.21407 -5.451953,12.39808 -1.085054,3.18401 -2.294623,7.78215 -2.685954,10.22797 -0.400224,2.44582 -1.449703,5.14956 -2.330198,6.00338 -0.889389,0.85381 -2.614803,1.55643 -3.84216,1.55643 -1.387446,0 -2.917195,-0.91607 -4.055613,-2.44582 -1.467491,-1.94776 -1.71652,-3.16623 -1.23625,-6.00338 0.329074,-1.95665 1.6009,-6.75935 2.828256,-10.67266 1.227357,-3.91331 3.6376,-9.91669 5.35412,-13.34083 1.716521,-3.42415 4.358006,-8.031184 5.869967,-10.227974 1.503067,-2.19679 4.358004,-5.772133 6.332447,-7.924454 1.96555,-2.161214 6.590371,-6.314659 10.254653,-9.22296 3.673175,-2.908301 9.071765,-6.63484 12.006748,-8.271315 2.934979,-1.636476 8.137903,-3.948886 11.56205,-5.149561 3.424146,-1.200675 8.627066,-2.605909 11.562056,-3.139542 2.93498,-0.52474 6.34134,-1.138418 7.5598,-1.351871 1.22736,-0.213454 6.22572,-0.20456 11.11736,0.01779 z m -2.00112,25.320897 c 8.83163,-0.05336 9.69433,0.08894 11.35749,1.938867 0.98722,1.102842 1.77878,2.801575 1.7521,3.779903 -0.0178,0.978327 -0.7293,2.490288 -1.57422,3.361889 -1.23625,1.28072 -2.98835,1.583112 -9.08956,1.574218 -4.15344,-0.0089 -10.15681,0.59589 -13.34083,1.351871 -3.18401,0.75598 -8.18237,2.650378 -11.108461,4.215705 -2.934983,1.55643 -7.951136,5.43416 -11.152935,8.61818 -3.2018,3.18401 -7.079531,8.18237 -8.627067,11.11735 -1.538643,2.93499 -3.459722,8.13791 -4.260172,11.56206 -0.80045,3.42414 -2.125639,6.95502 -2.943877,7.83551 -0.951646,1.03169 -2.436925,1.51196 -4.126764,1.33409 -1.769883,-0.18678 -3.086179,-1.06727 -4.002249,-2.68596 -1.182887,-2.08117 -1.209569,-3.14843 -0.195666,-8.0045 0.64036,-3.07728 2.908302,-9.19628 5.042834,-13.59875 2.134533,-4.40247 5.843284,-10.20129 8.23574,-12.89614 2.392456,-2.69485 7.124,-6.768246 10.521465,-9.053975 3.388571,-2.285729 7.968923,-4.971683 10.165714,-5.958905 2.196788,-0.987221 6.199038,-2.383562 8.893888,-3.112861 2.81047,-0.75598 8.96504,-1.35187 14.45257,-1.378552 z m 1.33408,24.885103 c 5.06062,-0.0445 5.71877,0.17787 7.36414,2.40134 0.99611,1.34298 1.80546,3.04171 1.79656,3.77991 -0.009,0.73819 -0.52473,2.08117 -1.13841,2.98834 -0.8805,1.28962 -2.55255,1.72542 -7.5776,2.00113 -3.54866,0.18677 -8.1468,1.08505 -10.22797,1.97444 -2.08117,0.89828 -5.30075,3.2018 -7.15068,5.11399 -1.85883,1.92108 -3.99336,5.29186 -4.74934,7.48865 -0.75598,2.19679 -1.938866,5.30076 -2.632589,6.89276 -0.844919,1.94776 -2.054488,3.06839 -3.699857,3.42415 -1.814353,0.40022 -2.908301,0.0445 -4.224597,-1.36077 -1.23625,-1.3074 -1.760989,-3.04171 -1.707626,-5.64762 0.03558,-2.06338 1.067266,-5.95001 2.285729,-8.64485 1.218463,-2.69485 3.593131,-6.44807 5.265181,-8.35136 1.680945,-1.9033 4.856059,-4.68708 7.052849,-6.18126 2.19679,-1.49417 6.19904,-3.42414 8.89389,-4.27796 2.69485,-0.85381 7.39082,-1.57421 10.45032,-1.60089 z"
     sodipodi:nodetypes="cccccccccccccccssscccsssccccccccccccccccscscssccccccccccsccccsscccsssccscaccccsccsscccsscccccccacccscccscccsccsccsscccssccccccccscscsccccsscsccccsccccsccccscssc"
     style="fill:#a1a1a1;fill-opacity:1;stroke-width:0.889389" />
</svg>
