<?xml version="1.0" encoding="UTF-8" standalone="no"?>
<svg
   viewBox="0 0 1114.3992 168.41403"
   width="1114.3992"
   height="168.41403"
   version="1.1"
   id="svg5"
   sodipodi:docname="popoto-logo-horizontal-blue.svg"
   inkscape:version="1.1 (c68e22c387, 2021-05-23)"
   xmlns:inkscape="http://www.inkscape.org/namespaces/inkscape"
   xmlns:sodipodi="http://sodipodi.sourceforge.net/DTD/sodipodi-0.dtd"
   xmlns="http://www.w3.org/2000/svg"
   xmlns:svg="http://www.w3.org/2000/svg">
  <defs
     id="defs9" />
  <sodipodi:namedview
     id="namedview7"
     pagecolor="#ffffff"
     bordercolor="#666666"
     borderopacity="1.0"
     inkscape:pageshadow="2"
     inkscape:pageopacity="0.0"
     inkscape:pagecheckerboard="0"
     showgrid="false"
     inkscape:zoom="0.39467044"
     inkscape:cx="1086.9829"
     inkscape:cy="-49.408311"
     inkscape:window-width="1920"
     inkscape:window-height="1057"
     inkscape:window-x="-8"
     inkscape:window-y="-8"
     inkscape:window-maximized="1"
     inkscape:current-layer="svg5" />
  <style
     id="style2">
		tspan { white-space:pre }
		.shp0 { fill: #3893c5 } 
	</style>
  <g
     id="g841"
     transform="matrix(0.32952422,0,0,0.32952422,48.625215,15.985018)">
    <path
       d="m 143.08483,129.51778 c 5.69,-0.05 6.43,0.2 8.28,2.7 1.12,1.51 2.03,3.42 2.02,4.25 -0.01,0.83 -0.59,2.34 -1.28,3.36 -0.99,1.45 -2.87,1.94 -8.52,2.25 -3.99,0.21 -9.16,1.22 -11.5,2.22 -2.34,1.01 -5.96,3.6 -8.04,5.75 -2.09,2.16 -4.49,5.95 -5.34,8.42 -0.85,2.47 -2.18,5.96 -2.96,7.75 -0.95,2.19 -2.31,3.45 -4.16,3.85 -2.04,0.45 -3.27,0.05 -4.75,-1.53 -1.39,-1.47 -1.98,-3.42 -1.92,-6.35 0.04,-2.32 1.2,-6.69 2.57,-9.72 1.37,-3.03 4.04,-7.25 5.92,-9.39 1.89,-2.14 5.46,-5.27 7.93,-6.95 2.47,-1.68 6.97,-3.85 10,-4.81 3.03,-0.96 8.31,-1.77 11.75,-1.8 z"
       id="path953"
       style="fill:#21608a;fill-opacity:1" />
    <path
       d="m 141.58483,101.53778 c 9.93,-0.06 10.9,0.1 12.77,2.18 1.11,1.24 2,3.15 1.97,4.25 -0.02,1.1 -0.82,2.8 -1.77,3.78 -1.39,1.44 -3.36,1.78 -10.22,1.77 -4.67,-0.01 -11.42,0.67 -15,1.52 -3.58,0.85 -9.2,2.98 -12.49,4.74 -3.3,1.75 -8.94,6.11 -12.54,9.69 -3.6,3.58 -7.959996,9.2 -9.699996,12.5 -1.73,3.3 -3.89,9.15 -4.79,13 -0.9,3.85 -2.39,7.82 -3.31,8.81 -1.07,1.16 -2.74,1.7 -4.64,1.5 -1.99,-0.21 -3.47,-1.2 -4.5,-3.02 -1.33,-2.34 -1.36,-3.54 -0.22,-9 0.72,-3.46 3.27,-10.34 5.67,-15.29 2.4,-4.95 6.57,-11.47 9.26,-14.5 2.69,-3.03 8.009996,-7.61 11.829996,-10.18 3.81,-2.57 8.96,-5.59 11.43,-6.7 2.47,-1.11 6.97,-2.68 10,-3.5 3.16,-0.85 10.08,-1.52 16.25,-1.55 z"
       id="path951"
       style="fill:#21608a;fill-opacity:1" />
    <path
       d="m 143.83483,73.067781 c 6.4,0.3 10.81,0.99 12.25,1.93 1.63,1.06 2.25,2.44 2.25,4.97 0,2.33 -0.58,3.79 -1.75,4.38 -0.96,0.49 -8.28,1.11 -16.25,1.38 -11.26,0.38 -16.06,0.99 -21.5,2.73 -3.85,1.23 -9.7,3.6 -13,5.26 -3.3,1.66 -8.479996,4.7 -11.499996,6.739999 -3.02,2.05 -8.65,7.08 -12.5,11.18 -4.07,4.33 -8.64,10.56 -10.91,14.89 -2.16,4.09 -4.91,10.36 -6.13,13.94 -1.22,3.58 -2.58,8.75 -3.02,11.5 -0.45,2.75 -1.63,5.79 -2.62,6.75 -1,0.96 -2.94,1.75 -4.32,1.75 -1.56,0 -3.28,-1.03 -4.56,-2.75 -1.65,-2.19 -1.93,-3.56 -1.39,-6.75 0.37,-2.2 1.8,-7.6 3.18,-12 1.38,-4.4 4.09,-11.15 6.02,-15 1.93,-3.85 4.9,-9.03 6.6,-11.5 1.69,-2.47 4.9,-6.49 7.12,-8.91 2.21,-2.43 7.41,-7.099999 11.53,-10.369999 4.13,-3.27 10.2,-7.46 13.5,-9.3 3.299996,-1.84 9.149996,-4.44 12.999996,-5.79 3.85,-1.35 9.7,-2.93 13,-3.53 3.3,-0.59 7.13,-1.28 8.5,-1.52 1.38,-0.24 7,-0.23 12.5,0.02 z"
       id="path949"
       style="fill:#21608a;fill-opacity:1" />
    <path
       d="m 422.33483,28.537781 c 4.04,0.01 5.82,0.46 6.72,1.72 0.67,0.94 1.23,2.95 1.25,4.46 0.02,1.79 -1.93,5.45 -5.61,10.5 -3.11,4.26 -6.89,10.45 -8.4,13.75 -1.52,3.3 -3.53,8.7 -4.48,12 -1,3.47 -1.57,8.13 -1.35,11.06 0.25,3.36 1.29,6.46 3.12,9.25 2.12,3.22 4.3,4.9 9.5,7.27 3.71,1.689999 12.37,5.629999 19.24,8.749999 6.88,3.12 20.38,9.97 30,15.22 9.63,5.26 23.14,13.08 30.01,17.38 6.88,4.31 17.9,11.68 24.5,16.38 6.6,4.71 16.27,12 21.5,16.22 5.23,4.21 14.23,11.92 20,17.12 5.77,5.21 15.23,14.78 21,21.28 5.77,6.5 13.58,15.92 17.34,20.94 3.76,5.02 9.36,13.18 12.43,18.13 3.07,4.95 8.65,15.41 12.4,23.25 4.9,10.23 7.46,14.49 9.08,15.11 1.24,0.47 8.55,1.12 16.25,1.45 7.7,0.32 19.4,1.5 26,2.61 6.6,1.11 16.5,3.21 22,4.65 5.5,1.44 12.48,3.53 15.5,4.63 3.02,1.1 11.25,4.77 18.28,8.15 9.23,4.44 12.77,6.64 12.75,7.9 -0.02,1.19 -2.49,2.9 -7.78,5.36 -4.26,1.99 -13.15,5.39 -19.75,7.57 -6.6,2.17 -17.06,4.82 -23.25,5.89 -6.19,1.06 -15.86,1.93 -21.5,1.92 -7.48,0 -10.86,0.4 -12.5,1.5 -1.4,0.94 -2.97,3.86 -4.15,7.76 -1.05,3.44 -2.59,9.85 -3.42,14.25 -0.84,4.4 -1.89,11.72 -2.35,16.26 -0.55,5.51 -0.97801,7.30803 -1.80801,7.29803 -4.85259,-3.45301 -6.13312,-5.97323 -8.63199,-9.05803 -2.87,-3.57 -7.58,-11.45 -10.47,-17.5 -2.88,-6.05 -6,-14.37 -6.92,-18.5 -0.93,-4.12 -1.94,-13.12 -2.81,-32.5 l -6.1,-6.37 c -3.35,-3.51 -10.36,-9.97 -15.59,-14.36 -5.23,-4.39 -16.02,-12.33 -24,-17.64 -7.98,-5.3 -21.25,-13.08 -29.5,-17.28 -8.25,-4.2 -20.18,-9.66 -26.5,-12.14 -6.32,-2.47 -16.68,-6.15 -23,-8.18 -6.32,-2.03 -17.8,-5.24 -25.5,-7.13 -7.7,-1.89 -21.87,-4.65 -31.5,-6.12 -16.34,-2.51 -19.74,-2.69 -51.5,-2.73 -22.12,-0.03 -37.67,0.4 -44.5,1.25 -5.77,0.72 -17.48,2.43 -26,3.81 -8.52,1.39 -17.05,3.28 -18.94,4.2 -1.88,0.93 -4.36,2.93 -5.5,4.44 -1.73,2.3 -1.9,3.27 -1.04,6 0.72,2.31 2.17,3.82 5,5.23 3.54,1.76 6.94,2.05 30.98,2.66 14.85,0.37 30.04,0.72 33.75,0.77 6.05,0.08 6.75,0.3 6.75,2.09 0,1.31 -2.14,3.52 -6.25,6.43 -3.44,2.43 -11.43,6.9 -17.75,9.94 -6.32,3.03 -15.1,6.4 -19.5,7.49 -4.4,1.1 -11.6,2.52 -16,3.17 -4.4,0.66 -14.75,1.18 -23,1.17 -8.25,-0.01 -18.82,-0.54 -23.5,-1.17 -4.68,-0.63 -13.45,-2.25 -19.5,-3.61 -6.73,-1.51 -11.78,-2.17 -13,-1.69 -1.1,0.43 -6.5,3.78 -12,7.43 -5.5,3.66 -14.72,9.14 -20.5,12.18 -5.78,3.04 -14.55,7.15 -19.5,9.13 -4.95,1.98 -13.95,4.73 -20,6.1 -6.05,1.37 -13.92,3.18 -17.5,4.02 -3.58,0.83 -8.08,2.26 -10,3.18 -1.92,0.91 -9.35,7.34 -16.5,14.29 -7.15,6.95 -14.46,13.38 -16.25,14.29 -1.87,0.95 -8.530633,3.41339 -11.749996,1.15 -1.412531,-0.99309 -1.269965,-5.02199 -1.269965,-5.02199 -0.2,-3.85 1.709965,-6.59801 5.749965,-15.72801 2.74,-6.19 5.649996,-14.4 6.449996,-18.25 0.81,-3.85 2.15,-12.62 2.98,-19.5 0.83,-6.87 2.2,-18.24 3.05,-25.25 0.97,-8 2.5,-15.26 4.1,-19.5 1.41,-3.71 4.45,-10.34 6.75,-14.74 2.31,-4.39 6.66,-11.66 9.69,-16.16 3.03,-4.5 9.16,-12.6 13.63,-18.01 4.47,-5.41 12.14,-13.66 17.03,-18.34 4.9,-4.68 12.72,-11.58 17.37,-15.34 4.66,-3.76 13.87,-10.43 20.47,-14.82 6.6,-4.4 18.75,-11.32 27,-15.39 8.25,-4.07 21.07,-9.41 28.5,-11.86 7.43,-2.45 19.13,-5.65 26,-7.12 6.88,-1.46 14.75,-3.38 17.5,-4.26 3.74,-1.209999 6.26,-2.999999 10,-7.119999 2.75,-3.03 10.4,-10.93 17,-17.57 8.38,-8.42 15.32,-14.28 23,-19.41 6.05,-4.04 15.5,-9.52 21,-12.16 5.5,-2.65 13.6,-5.99 18,-7.44 4.4,-1.44 11.46274,-4.593456 17.45602,-5.971944 6.56049,-1.508949 13.88464,-2.446851 20.04398,-2.468056 z"
       id="Path 0"
       style="fill:#3893c5;fill-opacity:1" />
  </g>
  <g
     aria-label="PopotoModem"
     id="text3420"
     style="font-size:96px;line-height:1.35;font-family:Montserrat;-inkscape-font-specification:Montserrat;fill:#21608a;fill-opacity:1;stroke-width:1.19634"
     inkscape:export-filename="D:\Popoto\popoto-logo-with-text.png"
     inkscape:export-xdpi="173.15422"
     inkscape:export-ydpi="173.15422"
     transform="translate(296.91935,-379.61651)">
    <path
       d="m 45.171829,494.13281 v -67.2 h 25.152 q 8.544,0 14.688,2.784 6.144,2.688 9.408,7.872 3.36,5.088 3.36,12.384 0,7.104 -3.36,12.288 -3.264,5.088 -9.408,7.872 -6.144,2.784 -14.688,2.784 h -21.216 l 3.168,-3.36 v 24.576 z m 7.104,-24 -3.168,-3.456 h 21.024 q 10.08,0 15.264,-4.32 5.28,-4.416 5.28,-12.384 0,-8.064 -5.28,-12.48 -5.184,-4.416 -15.264,-4.416 h -21.024 l 3.168,-3.36 z"
       style="font-weight:normal;-inkscape-font-specification:Montserrat;fill:#21608a;fill-opacity:1"
       id="path841" />
    <path
       d="m 131.96827,494.61281 q -7.296,0 -13.152,-3.264 -5.76,-3.36 -9.12,-9.12 -3.36,-5.856 -3.36,-13.344 0,-7.584 3.36,-13.344 3.36,-5.76 9.12,-9.024 5.76,-3.264 13.152,-3.264 7.488,0 13.248,3.264 5.856,3.264 9.12,9.024 3.36,5.76 3.36,13.344 0,7.488 -3.36,13.344 -3.264,5.76 -9.12,9.12 -5.856,3.264 -13.248,3.264 z m 0,-6.048 q 5.472,0 9.696,-2.4 4.224,-2.496 6.624,-6.912 2.496,-4.512 2.496,-10.368 0,-5.952 -2.496,-10.368 -2.4,-4.416 -6.624,-6.816 -4.224,-2.496 -9.6,-2.496 -5.376,0 -9.6,2.496 -4.224,2.4 -6.72,6.816 -2.496,4.416 -2.496,10.368 0,5.856 2.496,10.368 2.496,4.416 6.72,6.912 4.224,2.4 9.504,2.4 z"
       style="font-weight:normal;-inkscape-font-specification:Montserrat;fill:#21608a;fill-opacity:1"
       id="path843" />
    <path
       d="m 197.63217,494.61281 q -6.528,0 -11.808,-2.976 -5.28,-3.072 -8.448,-8.736 -3.072,-5.76 -3.072,-14.016 0,-8.256 3.072,-13.92 3.072,-5.76 8.352,-8.736 5.28,-2.976 11.904,-2.976 7.2,0 12.864,3.264 5.76,3.168 9.024,9.024 3.264,5.76 3.264,13.344 0,7.68 -3.264,13.44 -3.264,5.76 -9.024,9.024 -5.664,3.264 -12.864,3.264 z m -26.016,18.144 v -69.024 h 6.528 v 15.168 l -0.672,10.08 0.96,10.176 v 33.6 z m 25.536,-24.192 q 5.376,0 9.6,-2.4 4.224,-2.496 6.72,-6.912 2.496,-4.512 2.496,-10.368 0,-5.856 -2.496,-10.272 -2.496,-4.416 -6.72,-6.912 -4.224,-2.496 -9.6,-2.496 -5.376,0 -9.696,2.496 -4.224,2.496 -6.72,6.912 -2.4,4.416 -2.4,10.272 0,5.856 2.4,10.368 2.496,4.416 6.72,6.912 4.32,2.4 9.696,2.4 z"
       style="font-weight:normal;-inkscape-font-specification:Montserrat;fill:#21608a;fill-opacity:1"
       id="path845" />
    <path
       d="m 257.24812,494.61281 q -7.296,0 -13.152,-3.264 -5.76,-3.36 -9.12,-9.12 -3.36,-5.856 -3.36,-13.344 0,-7.584 3.36,-13.344 3.36,-5.76 9.12,-9.024 5.76,-3.264 13.152,-3.264 7.488,0 13.248,3.264 5.856,3.264 9.12,9.024 3.36,5.76 3.36,13.344 0,7.488 -3.36,13.344 -3.264,5.76 -9.12,9.12 -5.856,3.264 -13.248,3.264 z m 0,-6.048 q 5.472,0 9.696,-2.4 4.224,-2.496 6.624,-6.912 2.496,-4.512 2.496,-10.368 0,-5.952 -2.496,-10.368 -2.4,-4.416 -6.624,-6.816 -4.224,-2.496 -9.6,-2.496 -5.376,0 -9.6,2.496 -4.224,2.4 -6.72,6.816 -2.496,4.416 -2.496,10.368 0,5.856 2.496,10.368 2.496,4.416 6.72,6.912 4.224,2.4 9.504,2.4 z"
       style="font-weight:normal;-inkscape-font-specification:Montserrat;fill:#21608a;fill-opacity:1"
       id="path847" />
    <path
       d="m 312.83201,494.61281 q -7.104,0 -10.944,-3.84 -3.84,-3.84 -3.84,-10.848 v -47.328 h 6.816 v 46.944 q 0,4.416 2.208,6.816 2.304,2.4 6.528,2.4 4.512,0 7.488,-2.592 l 2.4,4.896 q -2.016,1.824 -4.896,2.688 -2.784,0.864 -5.76,0.864 z m -23.808,-45.216 v -5.664 h 31.2 v 5.664 z"
       style="font-weight:normal;-inkscape-font-specification:Montserrat;fill:#21608a;fill-opacity:1"
       id="path849" />
    <path
       d="m 354.60456,494.61281 q -7.296,0 -13.152,-3.264 -5.76,-3.36 -9.12,-9.12 -3.36,-5.856 -3.36,-13.344 0,-7.584 3.36,-13.344 3.36,-5.76 9.12,-9.024 5.76,-3.264 13.152,-3.264 7.488,0 13.248,3.264 5.856,3.264 9.12,9.024 3.36,5.76 3.36,13.344 0,7.488 -3.36,13.344 -3.264,5.76 -9.12,9.12 -5.856,3.264 -13.248,3.264 z m 0,-6.048 q 5.472,0 9.696,-2.4 4.224,-2.496 6.624,-6.912 2.496,-4.512 2.496,-10.368 0,-5.952 -2.496,-10.368 -2.4,-4.416 -6.624,-6.816 -4.224,-2.496 -9.6,-2.496 -5.376,0 -9.6,2.496 -4.224,2.4 -6.72,6.816 -2.496,4.416 -2.496,10.368 0,5.856 2.496,10.368 2.496,4.416 6.72,6.912 4.224,2.4 9.504,2.4 z"
       style="font-weight:normal;-inkscape-font-specification:Montserrat;fill:#21608a;fill-opacity:1"
       id="path851" />
    <path
       d="m 394.82846,494.13281 v -67.2 h 7.872 l 30.144,50.784 h -4.224 l 29.76,-50.784 h 7.872 l 0.096,67.2 h -9.216 l -0.096,-52.704 h 2.208 l -26.496,44.544 h -4.416 l -26.688,-44.544 h 2.4 v 52.704 z"
       style="font-weight:500;-inkscape-font-specification:'Montserrat Medium';white-space:pre;fill:#21608a;fill-opacity:1"
       id="path853" />
    <path
       d="m 506.95645,494.70881 q -7.68,0 -13.632,-3.36 -5.952,-3.36 -9.408,-9.216 -3.456,-5.952 -3.456,-13.44 0,-7.584 3.456,-13.44 3.456,-5.856 9.408,-9.12 5.952,-3.36 13.632,-3.36 7.584,0 13.536,3.36 6.048,3.264 9.408,9.12 3.456,5.76 3.456,13.44 0,7.584 -3.456,13.44 -3.36,5.856 -9.408,9.216 -5.952,3.36 -13.536,3.36 z m 0,-8.064 q 4.896,0 8.736,-2.208 3.936,-2.208 6.144,-6.24 2.208,-4.128 2.208,-9.504 0,-5.472 -2.208,-9.408 -2.208,-4.032 -6.144,-6.24 -3.84,-2.208 -8.736,-2.208 -4.896,0 -8.736,2.208 -3.84,2.208 -6.144,6.24 -2.304,3.936 -2.304,9.408 0,5.376 2.304,9.504 2.304,4.032 6.144,6.24 3.84,2.208 8.736,2.208 z"
       style="font-weight:500;-inkscape-font-specification:'Montserrat Medium';white-space:pre;fill:#21608a;fill-opacity:1"
       id="path855" />
    <path
       d="m 567.14829,494.70881 q -7.392,0 -13.248,-3.264 -5.76,-3.264 -9.12,-9.12 -3.36,-5.856 -3.36,-13.632 0,-7.776 3.36,-13.536 3.36,-5.856 9.12,-9.12 5.856,-3.264 13.248,-3.264 6.432,0 11.616,2.88 5.184,2.88 8.256,8.64 3.168,5.76 3.168,14.4 0,8.64 -3.072,14.4 -2.976,5.76 -8.16,8.736 -5.184,2.88 -11.808,2.88 z m 0.768,-8.064 q 4.8,0 8.64,-2.208 3.936,-2.208 6.144,-6.24 2.304,-4.128 2.304,-9.504 0,-5.472 -2.304,-9.408 -2.208,-4.032 -6.144,-6.24 -3.84,-2.208 -8.64,-2.208 -4.896,0 -8.736,2.208 -3.84,2.208 -6.144,6.24 -2.304,3.936 -2.304,9.408 0,5.376 2.304,9.504 2.304,4.032 6.144,6.24 3.84,2.208 8.736,2.208 z m 17.376,7.488 v -13.728 l 0.576,-11.808 -0.96,-11.808 v -33.888 h 9.216 v 71.232 z"
       style="font-weight:500;-inkscape-font-specification:'Montserrat Medium';white-space:pre;fill:#21608a;fill-opacity:1"
       id="path857" />
    <path
       d="m 634.25221,494.70881 q -8.16,0 -14.4,-3.36 -6.144,-3.36 -9.6,-9.216 -3.36,-5.856 -3.36,-13.44 0,-7.584 3.264,-13.44 3.36,-5.856 9.12,-9.12 5.856,-3.36 13.152,-3.36 7.392,0 13.056,3.264 5.664,3.264 8.832,9.216 3.264,5.856 3.264,13.728 0,0.576 -0.096,1.344 0,0.768 -0.096,1.44 h -43.296 v -6.624 h 38.496 l -3.744,2.304 q 0.096,-4.896 -2.016,-8.736 -2.112,-3.84 -5.856,-5.952 -3.648,-2.208 -8.544,-2.208 -4.8,0 -8.544,2.208 -3.744,2.112 -5.856,6.048 -2.112,3.84 -2.112,8.832 v 1.536 q 0,5.088 2.304,9.12 2.4,3.936 6.624,6.144 4.224,2.208 9.696,2.208 4.512,0 8.16,-1.536 3.744,-1.536 6.528,-4.608 l 5.088,5.952 q -3.456,4.032 -8.64,6.144 -5.088,2.112 -11.424,2.112 z"
       style="font-weight:500;-inkscape-font-specification:'Montserrat Medium';white-space:pre;fill:#21608a;fill-opacity:1"
       id="path859" />
    <path
       d="m 733.99617,442.77281 q 6.144,0 10.848,2.4 4.704,2.4 7.296,7.296 2.688,4.896 2.688,12.384 v 29.28 h -9.216 v -28.224 q 0,-7.392 -3.456,-11.136 -3.456,-3.744 -9.696,-3.744 -4.608,0 -8.064,1.92 -3.456,1.92 -5.376,5.664 -1.824,3.744 -1.824,9.312 v 26.208 h -9.216 v -28.224 q 0,-7.392 -3.456,-11.136 -3.36,-3.744 -9.696,-3.744 -4.512,0 -7.968,1.92 -3.456,1.92 -5.376,5.664 -1.92,3.744 -1.92,9.312 v 26.208 h -9.216 v -50.88 h 8.832 v 13.536 l -1.44,-3.456 q 2.4,-4.992 7.392,-7.776 4.992,-2.784 11.616,-2.784 7.296,0 12.576,3.648 5.28,3.552 6.912,10.848 l -3.744,-1.536 q 2.304,-5.856 8.064,-9.408 5.76,-3.552 13.44,-3.552 z"
       style="font-weight:500;-inkscape-font-specification:'Montserrat Medium';white-space:pre;fill:#21608a;fill-opacity:1"
       id="path861" />
  </g>
</svg>
