<?xml version="1.0" encoding="UTF-8" standalone="no"?>
<svg
   viewBox="0 0 702.72986 356.98807"
   width="702.72986"
   height="356.98807"
   version="1.1"
   id="svg5"
   sodipodi:docname="popoto-logo-single-color-white.svg"
   inkscape:version="1.1 (c68e22c387, 2021-05-23)"
   xmlns:inkscape="http://www.inkscape.org/namespaces/inkscape"
   xmlns:sodipodi="http://sodipodi.sourceforge.net/DTD/sodipodi-0.dtd"
   xmlns="http://www.w3.org/2000/svg"
   xmlns:svg="http://www.w3.org/2000/svg">
  <defs
     id="defs9" />
  <sodipodi:namedview
     id="namedview7"
     pagecolor="#ffffff"
     bordercolor="#666666"
     borderopacity="1.0"
     inkscape:pageshadow="2"
     inkscape:pageopacity="0.0"
     inkscape:pagecheckerboard="0"
     showgrid="false"
     inkscape:zoom="0.45957446"
     inkscape:cx="-238.26389"
     inkscape:cy="-77.245372"
     inkscape:window-width="1271"
     inkscape:window-height="1039"
     inkscape:window-x="280"
     inkscape:window-y="2"
     inkscape:window-maximized="0"
     inkscape:current-layer="svg5" />
  <style
     id="style2">
		tspan { white-space:pre }
		.shp0 { fill: #3893c5 } 
	</style>
  <path
     id="Path 0"
     fill-rule="evenodd"
     class="shp0"
     d="m 371.26106,19.489445 c 3.59888,0.0089 5.18453,0.409774 5.98626,1.532197 0.59684,0.837363 1.0957,2.627894 1.11351,3.97302 0.0178,1.594553 -1.71927,4.854924 -4.99745,9.353523 -2.77043,3.794858 -6.1377,9.308983 -7.48282,12.248662 -1.35404,2.939679 -3.14457,7.750062 -3.99084,10.689741 -0.89081,3.091117 -1.39857,7.2423 -1.20259,9.852378 0.2227,2.993128 1.14914,5.754644 2.77933,8.240009 1.88852,2.868414 3.83049,4.364977 8.46271,6.476201 3.30491,1.505471 11.01934,5.01527 17.13922,7.794602 6.12878,2.779333 18.15474,8.881394 26.72435,13.558152 8.57852,4.68567 20.61339,11.65182 26.73326,15.48231 6.12879,3.83941 15.94553,10.40469 21.82489,14.5915 5.87936,4.19573 14.49351,10.68975 19.15245,14.44897 4.65895,3.75032 12.67625,10.61848 17.81624,15.2507 5.13998,4.64113 13.56706,13.1662 18.70705,18.95647 5.13998,5.79028 12.09722,14.18173 15.44667,18.6536 3.34945,4.47188 8.338,11.7409 11.07279,16.15042 2.73479,4.40952 7.70552,13.72741 11.04607,20.71137 4.36498,9.11301 6.64545,12.90786 8.08857,13.46017 1.1046,0.41868 7.61644,0.99771 14.47569,1.29167 6.85925,0.28506 17.28175,1.33622 23.16111,2.32502 5.87935,0.9888 14.69839,2.85951 19.59785,4.14228 4.89947,1.28277 11.11733,3.14456 13.80759,4.12446 2.69025,0.97989 10.02163,4.24917 16.28404,7.26011 8.22219,3.95521 11.37566,5.91499 11.35784,7.03741 -0.0178,1.06007 -2.21812,2.58336 -6.93051,4.77476 -3.79486,1.77271 -11.71418,4.80147 -17.59353,6.74344 -5.87936,1.93306 -15.19725,4.29371 -20.71138,5.24688 -5.51412,0.94426 -14.12827,1.71927 -19.15245,1.71036 -6.66327,0 -9.67421,0.35633 -11.13515,1.33622 -1.24713,0.83736 -2.64571,3.43853 -3.69686,6.9127 -0.93536,3.06439 -2.30721,8.77449 -3.04658,12.69406 -0.74828,3.91958 -1.68364,10.44032 -2.09341,14.4846 -0.48995,4.90838 -0.87122,6.51008 -1.6106,6.50118 -4.32274,-3.07599 -5.46345,-5.32103 -7.68947,-8.069 -2.55663,-3.1802 -6.75236,-10.1998 -9.3268,-15.58921 -2.56554,-5.38941 -5.34487,-12.80097 -6.16442,-16.48002 -0.82845,-3.67014 -1.72817,-11.68745 -2.50318,-28.95138 l -5.43395,-5.67447 c -2.98422,-3.12675 -9.22881,-8.88139 -13.88776,-12.79206 -4.65894,-3.91066 -14.2708,-10.98371 -21.37948,-15.71392 -7.10868,-4.7213 -18.92975,-11.65182 -26.27895,-15.39322 -7.34919,-3.74141 -17.97658,-8.60525 -23.60651,-10.81446 -5.62993,-2.2003 -14.85874,-5.47849 -20.48867,-7.28684 -5.62993,-1.80835 -15.85645,-4.66785 -22.7157,-6.35149 -6.85925,-1.68363 -19.48205,-4.14227 -28.06057,-5.45177 -14.55586,-2.23593 -17.58462,-2.39628 -45.87681,-2.43191 -19.70475,-0.0267 -33.55687,0.35632 -39.64112,1.11351 -5.13998,0.64139 -15.57139,2.16468 -23.1611,3.394 -7.58972,1.23822 -15.18834,2.92186 -16.87198,3.74141 -1.67472,0.82845 -3.88394,2.61007 -4.89946,3.9552 -1.54111,2.04887 -1.69255,2.91295 -0.92645,5.34487 0.64139,2.05778 1.93306,3.4029 4.45406,4.65895 3.15347,1.56782 6.18223,1.82616 27.59735,2.36956 13.22855,0.3296 26.75998,0.64138 30.0649,0.68592 5.38941,0.0713 6.01298,0.26724 6.01298,1.8618 0,1.16696 -1.90634,3.13565 -5.56758,5.72792 -3.06439,2.16467 -10.18198,6.1466 -15.81191,8.85467 -5.62993,2.69915 -13.45125,5.70119 -17.37083,6.67218 -3.91957,0.97989 -10.33341,2.24484 -14.25298,2.82387 -3.91958,0.58793 -13.13948,1.05116 -20.48867,1.04225 -7.3492,-0.009 -16.76508,-0.48104 -20.93408,-1.04225 -4.169,-0.56121 -11.98142,-2.00433 -17.37083,-3.21583 -5.99516,-1.34513 -10.49376,-1.93306 -11.58055,-1.50547 -0.9799,0.38305 -5.79028,3.36726 -10.68974,6.61873 -4.89947,3.26037 -13.11275,8.14202 -18.26165,10.85008 -5.14889,2.70807 -12.96131,6.36931 -17.37082,8.13312 -4.40952,1.7638 -12.42683,4.21354 -17.81624,5.43395 -5.38941,1.22041 -12.4001,2.83278 -15.58921,3.58106 -3.1891,0.73937 -7.19775,2.01324 -8.90811,2.83278 -1.71036,0.81064 -8.32909,6.53856 -14.6984,12.7297 -6.369301,6.19114 -12.881135,11.91906 -14.475688,12.7297 -1.665818,0.84627 -7.599188,3.04069 -10.467035,1.02444 -1.258299,-0.88466 -1.131299,-4.47365 -1.131299,-4.47365 -0.178163,-3.42963 1.523256,-5.87759 5.122136,-14.0107 2.440824,-5.51412 5.033083,-12.82769 5.745732,-16.25731 0.721558,-3.42963 1.915246,-11.24205 2.654619,-17.37083 0.739374,-6.11988 1.959786,-16.24841 2.716976,-22.493 0.864088,-7.12649 2.22703,-13.59379 3.652328,-17.37083 1.256045,-3.30491 3.964113,-9.21099 6.012981,-13.13056 2.05777,-3.91067 5.9328,-10.38687 8.63196,-14.39552 2.69916,-4.00865 8.15984,-11.22423 12.14177,-16.04352 3.98193,-4.81929 10.81446,-12.16849 15.17052,-16.33749 4.36498,-4.169 11.33113,-10.3156 15.4734,-13.66505 4.15119,-3.34945 12.35556,-9.29117 18.23492,-13.20184 5.87936,-3.91957 16.70272,-10.08399 24.05192,-13.70959 7.34919,-3.6256 18.7694,-8.382539 25.38813,-10.565028 6.61873,-2.182489 17.04123,-5.033086 23.16111,-6.342579 6.12878,-1.300586 13.13947,-3.010944 15.5892,-3.794859 3.33164,-1.077881 5.57649,-2.672434 8.90812,-6.342578 2.44973,-2.69916 9.26444,-9.736573 15.1438,-15.651563 7.465,-7.500635 13.64724,-12.720792 20.48867,-17.290656 5.38941,-3.59888 13.80758,-8.480528 18.70705,-10.832271 4.89946,-2.360651 12.11504,-5.335962 16.03461,-6.627639 3.91957,-1.282769 10.21114,-4.091905 15.55003,-5.319878 5.84416,-1.34419 12.3686,-2.179684 17.85541,-2.198574 z M 123.16999,59.157293 c 5.70119,0.267243 9.62967,0.881903 10.91244,1.719266 1.45203,0.944261 2.00433,2.173581 2.00433,4.427335 0,2.075591 -0.51667,3.376176 -1.55892,3.901755 -0.85518,0.436498 -7.37592,0.988801 -14.47569,1.229321 -10.03055,0.338508 -14.30644,0.881903 -19.15246,2.431916 -3.429622,1.095698 -8.640871,3.206922 -11.58055,4.685669 -2.939679,1.478748 -7.55408,4.186816 -10.244332,6.004071 -2.690251,1.826164 -7.705521,6.306947 -11.135147,9.959275 -3.625603,3.857215 -7.696613,9.406969 -9.718756,13.264189 -1.924153,3.64342 -4.373886,9.22881 -5.460676,12.41792 -1.08679,3.18911 -2.298294,7.7946 -2.690251,10.24434 -0.400866,2.44973 -1.452024,5.1578 -2.333928,6.01297 -0.890812,0.85518 -2.618986,1.55893 -3.848307,1.55893 -1.389666,0 -2.921862,-0.91754 -4.062101,-2.44974 -1.46984,-1.95087 -1.719267,-3.17129 -1.238229,-6.01298 0.329601,-1.95978 1.603462,-6.77017 2.832782,-10.68974 1.22932,-3.91957 3.64342,-9.93255 5.362687,-13.36218 1.719267,-3.42962 4.364978,-8.04403 5.879358,-10.244335 1.505472,-2.200305 4.364977,-5.781368 6.34258,-7.937133 1.968694,-2.164672 6.600915,-6.324762 10.271059,-9.237717 3.679053,-2.912954 9.08628,-6.645455 12.025959,-8.284549 2.939675,-1.639094 8.150924,-3.955204 11.580549,-5.1578 3.429625,-1.202596 8.640873,-2.610079 11.580553,-3.144566 2.93968,-0.525579 6.35149,-1.140239 7.5719,-1.354034 1.22932,-0.213794 6.23568,-0.204886 11.13515,0.01782 z m -2.00433,25.36141 c 8.84576,-0.05345 9.70985,0.08908 11.37567,1.941969 0.9888,1.104607 1.78162,2.806057 1.7549,3.78595 -0.0178,0.979893 -0.73047,2.494273 -1.57674,3.367269 -1.23823,1.282769 -2.99313,1.585645 -9.1041,1.576736 -4.16009,-0.0089 -10.17307,0.596844 -13.36217,1.354034 -3.18911,0.75719 -8.19547,2.654619 -11.126242,4.222449 -2.939679,1.55892 -7.963858,5.44286 -11.17078,8.63197 -3.206922,3.1891 -7.090858,8.19546 -8.64087,11.13515 -1.541105,2.93968 -3.465258,8.15093 -4.266989,11.58055 -0.80173,3.42963 -2.12904,6.96615 -2.948587,7.84805 -0.953168,1.03334 -2.440824,1.51438 -4.133366,1.33622 -1.772716,-0.18707 -3.091117,-1.06897 -4.008653,-2.69025 -1.18478,-2.0845 -1.211504,-3.15348 -0.195979,-8.01731 0.641385,-3.08221 2.912955,-9.21099 5.050903,-13.62051 2.137948,-4.40952 5.852633,-10.21762 8.248917,-12.91678 2.396284,-2.69915 7.135399,-6.779073 10.538299,-9.068459 3.393993,-2.289387 7.981674,-4.979638 10.181979,-5.968439 2.200305,-0.988801 6.208958,-2.387376 8.908118,-3.117841 2.81496,-0.75719 8.97938,-1.354034 14.47569,-1.380758 z m 1.33622,24.924917 c 5.06872,-0.0445 5.72792,0.17816 7.37592,2.40519 0.99771,1.34512 1.80835,3.04657 1.79944,3.78595 -0.009,0.73937 -0.52558,2.0845 -1.14024,2.99313 -0.8819,1.29168 -2.55663,1.72818 -7.58972,2.00433 -3.55434,0.18707 -8.15983,1.08679 -10.24433,1.9776 -2.0845,0.89972 -5.30924,3.20692 -7.16213,5.12217 -1.86179,1.92415 -3.99974,5.30033 -4.75693,7.50063 -0.75719,2.20031 -1.941972,5.30924 -2.636805,6.90379 -0.846271,1.95088 -2.057775,3.0733 -3.705777,3.42963 -1.817256,0.40086 -2.912955,0.0445 -4.231356,-1.36294 -1.238228,-1.3095 -1.763807,-3.04658 -1.710359,-5.65666 0.03563,-2.06668 1.068974,-5.95953 2.289387,-8.65869 1.220412,-2.69916 3.598879,-6.45838 5.273605,-8.36472 1.683634,-1.90634 4.863835,-4.69458 7.064135,-6.19115 2.20031,-1.49656 6.20896,-3.42962 8.90812,-4.2848 2.69916,-0.85518 7.40265,-1.57674 10.46704,-1.60346 z"
     sodipodi:nodetypes="cccccccccccccccssscccsssccccccccccccccccscscssccccccccccsccccsscccsssccscaccccsccsscccsscccccccacccscccscccsccsccsscccssccccccccscscsccccsscsccccsccccsccccscssc"
     style="fill:#ffffff;fill-opacity:1;stroke-width:0.890812" />
</svg>
